{"scene":0,"asset":{"generator":"FabConvert.com","version":"2.0"},"scenes":[{"name":"Scene","nodes":[0]}],"nodes":[{"name":"Node0","children":[1]},{"name":"Scene","children":[2]},{"name":"Crocodile","mesh":0}],"materials":[{"name":"M0","pbrMetallicRoughness":{"baseColorFactor":[1.0,1.0,1.0,1.0],"metallicFactor":0.0,"roughnessFactor":0.71},"doubleSided":true}],"images":[],"textures":[],"samplers":[{"magFilter":9729,"minFilter":9987}],"meshes":[{"name":"Mesh0","primitives":[{"indices":3,"material":0,"attributes":{"POSITION":0,"NORMAL":1,"TEXCOORD_0":2}}]}],"accessors":[{"bufferView":0,"componentType":5126,"count":18413,"type":"VEC3","min":[-0.20418593,-0.08458866,-0.76913464],"max":[0.20435776,0.078545794,0.68023115]},{"bufferView":1,"componentType":5126,"count":18413,"type":"VEC3"},{"bufferView":2,"componentType":5126,"count":18413,"type":"VEC2"},{"bufferView":3,"componentType":5123,"count":288756,"type":"SCALAR"}],"bufferViews":[{"target":34962,"buffer":0,"byteLength":220956,"byteOffset":0},{"target":34962,"buffer":0,"byteLength":220956,"byteOffset":220956},{"target":34962,"buffer":0,"byteLength":147304,"byteOffset":441912},{"target":34963,"buffer":0,"byteLength":577512,"byteOffset":589216}],"buffers":[{"byteLength":1166728,"uri":"data:application/octet-stream;base64,"}]}